<svg xmlns="http://www.w3.org/2000/svg" viewBox="301.836784409257 336.96000000000004 1411.8976857490866 569.088" version="1.1" style="max-height: 500px" width="1411.8976857490866" height="569.088">
<path fill="#f0f9fc" d="m0 0h2048v1248h-2048z" transform="translate(0)"/>
<path fill="#594cda" d="m0 0h142v56h40v-56h142v142h-142v-55h-40v55h-142z" transform="translate(338,546)"/>
<path fill="#594cda" d="m0 0h142v142h-142z" transform="translate(338,726)"/>
<path fill="#594cda" d="m0 0h142v142h-142z" transform="translate(703,367)"/>
<path fill="#594cda" d="m0 0h142v142h-142z" transform="translate(520,367)"/>
<path fill="#594cda" d="m0 0h142v142h-142z" transform="translate(338,367)"/>
<path fill="#594cda" d="m0 0h51l15 3 14 7 10 9 7 11 4 10 1 5v20l-4 14-7 11-9 9-12 7-9 3-6 1h-55z" transform="translate(1076,577)"/>
<path fill="#594cda" d="m0 0h50l12 3 8 6 4 5 3 7v14l-5 10-6 5-3 2 10 5 6 7 3 7 1 12-4 13-5 6-8 5-11 3h-55z" transform="translate(1454,577)"/>
<path fill="#594cda" d="m0 0h25l20 49 24 60v1h-23l-8-20-52-1-3 10-4 11h-23l1-5 20-50 20-49z" transform="translate(1364,577)"/>
<path fill="#594cda" d="m0 0h22v45h54v-45h22v110h-22v-47h-54v47h-22z" transform="translate(1203,577)"/>
<path fill="#594cda" d="m0 0h78v19h-57l1 25 49 1v18l-49 1v27l57 1v18h-79z" transform="translate(972,577)"/>
<path fill="#f0f9fc" d="m0 0h98l-6 7-91 91h-1z" transform="translate(542,389)"/>
<path fill="#f0f9fc" d="m0 0h97l-6 7-91 91h-1v-97z" transform="translate(543,568)"/>
<path fill="#f0f9fc" d="m0 0h97l-2 4-94 94h-1z" transform="translate(360,568)"/>
<path fill="#f0f9fc" d="m0 0h97l-2 4-94 94h-1z" transform="translate(360,389)"/>
<path fill="#f0f9fc" d="m0 0h97l-2 4-93 93h-2z" transform="translate(725,389)"/>
<path fill="#f0f9fc" d="m0 0h97l-6 7-90 90h-1z" transform="translate(360,748)"/>
<path fill="#594cda" d="m0 0h78v19h-56v26h44v19h-44v46h-22z" transform="translate(871,577)"/>
<path fill="#f0f9fc" d="m0 0h31l10 4 9 7 6 10 2 7v17l-5 12-7 8-10 6-9 2h-27z" transform="translate(1098,596)"/>
<path fill="#f0f9fc" d="m0 0h48l10 5 5 7 1 3v13l-4 8-6 5-10 3h-44z" transform="translate(1463,635)"/>
<path fill="#f0f9fc" d="m0 0h35l11 2 6 4 4 5 2 7v7l-4 8-7 6-5 2-7 1h-36v-41z" transform="translate(1464,585)"/>
<path fill="#594cda" d="m0 0h85v9h-38v101h-9v-101h-38z" transform="translate(1598,577)"/>
<path fill="#594cda" d="m0 0h10v110h-10z" transform="translate(1565,577)"/>
<path fill="#f0f9fc" d="m0 0 2 2 17 43 1 3-1 1h-38l1-5 17-43z" transform="translate(1376,600)"/>
</svg>