<svg version="1.1" xmlns="http://www.w3.org/2000/svg" width="1314px" height="292px" transform="rotate(0) scale(1, 1)">
<path d="M0 0 C433.62 0 867.24 0 1314 0 C1314 96.36 1314 192.72 1314 292 C880.38 292 446.76 292 0 292 C0 195.64 0 99.28 0 0 Z " fill="#f0f9fc" transform="translate(0,0)"/>
<path d="M0 0 C83.16 0 166.32 0 252 0 C252 83.16 252 166.32 252 252 C168.84 252 85.68 252 0 252 C0 168.84 0 85.68 0 0 Z " fill="#f0f9fc" transform="translate(20,26)"/>
<path d="M0 0 C84.87105482 0 84.87105482 0 100.0625 14.5625 C107.30764292 22.13144819 110.01166659 31.05020635 110.4375 41.4375 C110.11550822 51.12525262 107.11370108 61.16526759 100 68 C97.10794009 70.20099486 94.13365573 72.16158864 91 74 C91.6290625 74.32871094 92.258125 74.65742187 92.90625 74.99609375 C101.23808589 79.62628568 108.60360724 85.80976076 112 95 C114.46586611 109.29160431 113.77708281 122.5407959 106 135 C96.58092449 147.07354224 84.86654587 149.50198921 70 153 C46.9 153 23.8 153 0 153 C0 102.51 0 52.02 0 0 Z " fill="#252c38" transform="translate(981,52)"/>
<path d="M0 0 C76.18369289 0 76.18369289 0 95.8515625 18.80859375 C112.23221794 35.5168623 117.58348872 55.5718967 117.41723633 78.55078125 C116.85816433 98.89606372 111.88339328 119.24125825 97 134 C69.23201571 158.59372077 36.74561515 153 0 153 C0 102.51 0 52.02 0 0 Z " fill="#252c38" transform="translate(546,52)"/>
<path d="M0 0 C10.56 0 21.12 0 32 0 C32 20.46 32 40.92 32 62 C51.8 62 71.6 62 92 62 C92 41.54 92 21.08 92 0 C102.56 0 113.12 0 124 0 C124 50.49 124 100.98 124 153 C113.44 153 102.88 153 92 153 C92 131.55 92 110.1 92 88 C71.87 88 51.74 88 31 88 C31 109.12 31 130.24 31 152 C20.77 152 10.54 152 0 152 C0 101.84 0 51.68 0 0 Z " fill="#252c38" transform="translate(685,52)"/>
<path d="M0 0 C1.25159912 0.00523682 2.50319824 0.01047363 3.79272461 0.01586914 C4.78942421 0.01799156 4.78942421 0.01799156 5.80625916 0.02015686 C7.93590735 0.02577021 10.06545175 0.03832485 12.19506836 0.05102539 C13.63582205 0.05603868 15.07657739 0.06060188 16.51733398 0.06469727 C20.05577938 0.07574394 23.59416375 0.09301747 27.13256836 0.11352539 C27.50768555 1.20149414 27.88280273 2.28946289 28.26928711 3.41040039 C30.92437416 11.05512964 33.67958439 18.59618438 36.85522461 26.04321289 C40.30392363 34.33274632 43.33925755 42.79593682 46.28295898 51.27612305 C48.70017823 58.23947362 51.29254834 65.09792771 54.07006836 71.92602539 C57.13331865 79.46018147 59.9140506 87.05357152 62.5559082 94.74462891 C65.00331762 101.83682301 67.6916118 108.81761049 70.44116211 115.79711914 C72.34936401 120.64336348 74.17786532 125.51805398 75.99072266 130.40063477 C77.16844258 133.56678044 78.36545204 136.7218101 79.61694336 139.85961914 C80.07584961 141.0159082 80.53475586 142.17219727 81.00756836 143.36352539 C81.41749023 144.37930664 81.82741211 145.39508789 82.24975586 146.44165039 C83.13256836 149.11352539 83.13256836 149.11352539 83.13256836 153.11352539 C71.91256836 153.11352539 60.69256836 153.11352539 49.13256836 153.11352539 C45.83256836 143.21352539 42.53256836 133.31352539 39.13256836 123.11352539 C20.98256836 122.78352539 2.83256836 122.45352539 -15.86743164 122.11352539 C-16.52743164 125.41352539 -17.18743164 128.71352539 -17.86743164 132.11352539 C-18.39835618 133.98353643 -18.96531999 135.8443839 -19.59399414 137.68383789 C-19.8732373 138.51157715 -20.15248047 139.33931641 -20.44018555 140.19213867 C-20.78742676 141.19744629 -21.13466797 142.20275391 -21.49243164 143.23852539 C-22.60618164 146.49727539 -23.71993164 149.75602539 -24.86743164 153.11352539 C-36.08743164 153.11352539 -47.30743164 153.11352539 -58.86743164 153.11352539 C-58.22106334 149.23531559 -57.7065081 146.25730152 -56.44946289 142.67993164 C-56.16780273 141.87426758 -55.88614258 141.06860352 -55.59594727 140.23852539 C-55.29366211 139.39290039 -54.99137695 138.54727539 -54.67993164 137.67602539 C-54.36604492 136.78786133 -54.0521582 135.89969727 -53.72875977 134.98461914 C-51.45051143 128.59631875 -48.97257095 122.31727531 -46.40649414 116.03930664 C-44.20873105 110.54489892 -42.31344683 104.93934897 -40.40258789 99.34008789 C-38.72585442 94.45292636 -36.9104067 89.65011664 -34.9699707 84.86181641 C-32.75844302 79.34915762 -30.66355871 73.79117004 -28.55493164 68.23852539 C-28.31409851 67.60479004 -28.07326538 66.97105469 -27.82513428 66.31811523 C-24.46992903 57.47901125 -21.23181362 48.60727917 -18.14941406 39.66894531 C-16.27932035 34.25253264 -14.28779994 28.89796455 -12.19555664 23.56274414 C-10.11833586 18.16807958 -8.15341299 12.7318306 -6.18969727 7.29492188 C-5.90288086 6.50802979 -5.61606445 5.7211377 -5.32055664 4.91040039 C-5.06435547 4.20238281 -4.8081543 3.49436523 -4.54418945 2.76489258 C-3.40170587 -0.02289926 -3.20687337 0.12696434 0 0 Z " fill="#252c38" transform="translate(883.867431640625,51.886474609375)"/>
<path d="M0 0 C33.66 0 67.32 0 102 0 C102 8.91 102 17.82 102 27 C78.9 27 55.8 27 32 27 C32 38.55 32 50.1 32 62 C51.8 62 71.6 62 92 62 C92 70.25 92 78.5 92 87 C72.2 87 52.4 87 32 87 C32 100.2 32 113.4 32 127 C55.43 127 78.86 127 103 127 C103 135.58 103 144.16 103 153 C69.01 153 35.02 153 0 153 C0 102.51 0 52.02 0 0 Z " fill="#252c38" transform="translate(426,52)"/>
<path d="M0 0 C22.11 0 44.22 0 67 0 C67 8.91 67 17.82 67 27 C73.27 27 79.54 27 86 27 C86 18.09 86 9.18 86 0 C108.11 0 130.22 0 153 0 C153 22.77 153 45.54 153 69 C130.89 69 108.78 69 86 69 C86 60.09 86 51.18 86 42 C79.73 42 73.46 42 67 42 C67 50.58 67 59.16 67 68 C44.89 68 22.78 68 0 68 C0 45.56 0 23.12 0 0 Z " fill="#594cda" transform="translate(27,117)"/>
<path d="M0 0 C33 0 66 0 100 0 C100 8.58 100 17.16 100 26 C99 27 99 27 96.33616638 27.12025452 C94.5541256 27.1169236 94.5541256 27.1169236 92.73608398 27.11352539 C91.7556311 27.11374443 91.7556311 27.11374443 90.75537109 27.1139679 C88.58557872 27.11326883 86.41587121 27.10547678 84.24609375 27.09765625 C82.74536689 27.09579205 81.24463943 27.09436816 79.74391174 27.09336853 C75.78681774 27.08954352 71.82976022 27.0797134 67.87268066 27.06866455 C63.1286825 27.05665533 58.38467215 27.05204811 53.64066315 27.04621124 C46.42708336 27.03650162 39.21358369 27.01734498 32 27 C32 39.54 32 52.08 32 65 C51.8 65 71.6 65 92 65 C92 73.58 92 82.16 92 91 C72.2 91 52.4 91 32 91 C32 111.46 32 131.92 32 153 C21.44 153 10.88 153 0 153 C0 102.51 0 52.02 0 0 Z " fill="#252c38" transform="translate(309,52)"/>
<path d="M0 0 C40.92 0 81.84 0 124 0 C124 8.91 124 17.82 124 27 C108.82 27 93.64 27 78 27 C78 68.58 78 110.16 78 153 C67.11 153 56.22 153 45 153 C45 111.42 45 69.84 45 27 C30.15 27 15.3 27 0 27 C0 18.09 0 9.18 0 0 Z " fill="#252c38" transform="translate(1167,52)"/>
<path d="M0 0 C10.56 0 21.12 0 32 0 C32 50.49 32 100.98 32 153 C21.44 153 10.88 153 0 153 C0 102.51 0 52.02 0 0 Z " fill="#252c38" transform="translate(1119,52)"/>
<path d="M0 0 C22.11 0 44.22 0 67 0 C67 22.77 67 45.54 67 69 C44.89 69 22.78 69 0 69 C0 46.23 0 23.46 0 0 Z " fill="#594cda" transform="translate(27,30)"/>
<path d="M0 0 C30.45493562 0 30.45493562 0 40 8 C51.24289274 19.37568281 52.21123812 33.05873773 52.18066406 48.19726562 C52.02863791 66.36701161 50.03291618 79.9637922 37.5 93.75 C26.92221362 101.75114611 12.22224797 100 0 100 C0 67 0 34 0 0 Z " fill="#f0f9fc" transform="translate(578,79)"/>
<path d="M0 0 C22.11 0 44.22 0 67 0 C67 22.44 67 44.88 67 68 C44.89 68 22.78 68 0 68 C0 45.56 0 23.12 0 0 Z " fill="#594cda" transform="translate(27,204)"/>
<path d="M0 0 C22.11 0 44.22 0 67 0 C67 22.44 67 44.88 67 68 C44.89 68 22.78 68 0 68 C0 45.56 0 23.12 0 0 Z " fill="#594cda" transform="translate(199,31)"/>
<path d="M0 0 C21.78 0 43.56 0 66 0 C66 22.44 66 44.88 66 68 C44.22 68 22.44 68 0 68 C0 45.56 0 23.12 0 0 Z " fill="#594cda" transform="translate(113,31)"/>
<path d="M0 0 C5.424375 -0.0825 10.84875 -0.165 16.4375 -0.25 C18.97715454 -0.30462402 18.97715454 -0.30462402 21.56811523 -0.36035156 C36.45507186 -0.54726728 36.45507186 -0.54726728 43 4 C47.62845305 8.62845305 49.2908336 13.39418684 49.375 19.875 C49.2481357 26.75950267 47.65060828 30.27366005 42.8125 35.25 C33.98688185 40.74149574 25.02281206 40.36677328 14.9375 40.1875 C10.008125 40.125625 5.07875 40.06375 0 40 C0 26.8 0 13.6 0 0 Z " fill="#f0f9fc" transform="translate(1013,139)"/>
<path d="M0 0 C4.57875 -0.061875 9.1575 -0.12375 13.875 -0.1875 C16.0094458 -0.22846802 16.0094458 -0.22846802 18.18701172 -0.27026367 C35.1987277 -0.38085291 35.1987277 -0.38085291 40.96240234 4.74536133 C45.48743028 9.7074266 46.30696921 13.89301802 46.2109375 20.5 C45.78556175 25.54149042 43.7957883 28.2222978 40.25 31.6875 C34.54024249 35.75021207 29.75494972 37.38311094 22.75390625 37.29296875 C21.5532251 37.28547607 20.35254395 37.2779834 19.11547852 37.27026367 C17.61299561 37.24295166 16.1105127 37.21563965 14.5625 37.1875 C9.756875 37.125625 4.95125 37.06375 0 37 C0 24.79 0 12.58 0 0 Z " fill="#f0f9fc" transform="translate(1013,79)"/>
<path d="M0 0 C15.18 0 30.36 0 46 0 C44.00183689 3.99632621 41.71846124 6.52373591 38.58203125 9.578125 C38.04656174 10.10839294 37.51109222 10.63866089 36.95939636 11.18499756 C35.24846248 12.87817056 33.53101232 14.56452208 31.8125 16.25 C29.56558362 18.46009218 27.32188939 20.67337955 25.08203125 22.890625 C24.54242264 23.42478027 24.00281403 23.95893555 23.44685364 24.50927734 C19.95599261 27.9875511 16.6381554 31.56543715 13.44262695 35.31933594 C11.29338795 37.82320483 9.01188706 40.15753839 6.6875 42.5 C5.84574219 43.3559375 5.00398437 44.211875 4.13671875 45.09375 C2 47 2 47 0 47 C0 31.49 0 15.98 0 0 Z " fill="#f0f9fc" transform="translate(209,41)"/>
<path d="M0 0 C15.18 0 30.36 0 46 0 C43.68806712 3.85322146 42.07512591 6.16873724 39.00341797 9.20776367 C38.20604218 10.00176071 37.40866638 10.79575775 36.58712769 11.61381531 C35.73079742 12.45668594 34.87446716 13.29955658 33.9921875 14.16796875 C32.67034958 15.48200432 32.67034958 15.48200432 31.32180786 16.82258606 C28.98794872 19.14167263 26.65010103 21.45662869 24.30981445 23.76922607 C21.00438488 27.03655069 17.70422919 30.30918176 14.4067688 33.58454895 C12.65223556 35.32679425 10.89503675 37.06635992 9.13497925 38.80302429 C7.94837204 39.97983513 7.94837204 39.97983513 6.73779297 41.18041992 C5.68880325 42.21703011 5.68880325 42.21703011 4.61862183 43.27458191 C2.92135905 44.91912805 2.92135905 44.91912805 2 47 C1.34 47 0.68 47 0 47 C0 31.49 0 15.98 0 0 Z " fill="#f0f9fc" transform="translate(37,41)"/>
<path d="M0 0 C15.18 0 30.36 0 46 0 C43.24016269 4.13975597 41.18675857 7.06290129 37.7980957 10.44482422 C36.98077469 11.26522186 36.16345367 12.08561951 35.32136536 12.93087769 C34.01180122 14.22966354 34.01180122 14.22966354 32.67578125 15.5546875 C31.77377487 16.45623566 30.87176849 17.35778381 29.94242859 18.28665161 C28.04263674 20.18343087 26.14108876 22.07820717 24.23608398 23.96972656 C21.7895337 26.39917884 19.3497278 28.83527198 16.91209126 31.27366447 C14.58611253 33.59930708 12.25590018 35.92069415 9.92578125 38.2421875 C9.0466658 39.12019012 8.16755035 39.99819275 7.26179504 40.90280151 C6.45393051 41.70428619 5.64606598 42.50577087 4.8137207 43.33154297 C4.09964554 44.04180634 3.38557037 44.7520697 2.64985657 45.4838562 C1 47 1 47 0 47 C0 31.49 0 15.98 0 0 Z " fill="#f0f9fc" transform="translate(123,41)"/>
<path d="M0 0 C15.18 0 30.36 0 46 0 C35.25426853 12.53668672 23.78165697 24.3172109 12.125 36 C11.3094162 36.81946609 11.3094162 36.81946609 10.47735596 37.65548706 C8.92790856 39.21075901 7.37483226 40.76229977 5.8203125 42.3125 C4.91555176 43.21613281 4.01079102 44.11976563 3.07861328 45.05078125 C1 47 1 47 0 47 C0 31.49 0 15.98 0 0 Z " fill="#f0f9fc" transform="translate(37,214)"/>
<path d="M0 0 C14.85 0 29.7 0 45 0 C43.00210991 3.99578018 41.1745147 6.0441138 38.01953125 9.140625 C37.52845383 9.62650085 37.0373764 10.11237671 36.53141785 10.61297607 C34.96314352 12.16350303 33.38836518 13.70719156 31.8125 15.25 C29.7530544 17.27256096 27.69687339 19.29835606 25.64453125 21.328125 C25.14717468 21.81998291 24.64981812 22.31184082 24.13739014 22.81860352 C20.78034261 26.16232441 17.6185202 29.61872938 14.54467773 33.22167969 C12.03497165 36.11099517 9.34031139 38.80531123 6.625 41.5 C6.09261719 42.03625 5.56023438 42.5725 5.01171875 43.125 C1.12683355 47 1.12683355 47 0 47 C0 31.49 0 15.98 0 0 Z " fill="#f0f9fc" transform="translate(37,128)"/>
<path d="M0 0 C14.85 0 29.7 0 45 0 C42.91914762 4.16170476 40.41468711 6.82430539 37.14453125 10.015625 C36.27473885 10.87761505 36.27473885 10.87761505 35.38737488 11.75701904 C33.5337814 13.59284019 31.6736614 15.42185415 29.8125 17.25 C27.37810821 19.6476185 24.94692202 22.04841857 22.51953125 24.453125 C21.93757996 25.02957764 21.35562866 25.60603027 20.75604248 26.19995117 C17.13022809 29.81337296 13.66338818 33.51253092 10.34936523 37.41699219 C8.53702803 39.54313556 6.60375255 41.52906861 4.625 43.5 C3.62339844 44.50546875 3.62339844 44.50546875 2.6015625 45.53125 C1 47 1 47 0 47 C0 31.49 0 15.98 0 0 Z " fill="#f0f9fc" transform="translate(123,128)"/>
<path d="M0 0 C3.58693563 2.73979984 4.4905458 6.69569369 5.8125 10.81640625 C6.19498901 11.97305031 6.19498901 11.97305031 6.58520508 13.15306091 C7.39861064 15.62018261 8.1992892 18.09123281 9 20.5625 C9.53826446 22.19883044 10.07731889 23.83490124 10.6171875 25.47070312 C12.09915905 29.97380527 13.55547963 34.48476181 15 39 C15.34417969 40.06976074 15.68835938 41.13952148 16.04296875 42.24169922 C16.31753906 43.11971191 16.59210937 43.99772461 16.875 44.90234375 C17.21144531 45.97536743 17.21144531 45.97536743 17.5546875 47.07006836 C18 49 18 49 18 53 C6.45 53 -5.1 53 -17 53 C-16.18532621 48.11195727 -15.04378006 43.80899046 -13.41796875 39.1796875 C-13.16251785 38.4397757 -12.90706696 37.69986389 -12.64387512 36.93753052 C-11.82955608 34.58177595 -11.00875446 32.22834464 -10.1875 29.875 C-9.38058866 27.54892615 -8.57502812 25.22238754 -7.76956177 22.89581299 C-7.24709351 21.38710684 -6.72405056 19.87859959 -6.20040894 18.37030029 C-4.08245226 12.26352946 -2.02168948 6.13938975 0 0 Z " fill="#f0f9fc" transform="translate(895,94)"/>
</svg>