<?xml version="1.0" encoding="UTF-8"?>
<svg version="1.1" xmlns="http://www.w3.org/2000/svg" width="1210" height="268">
<path d="M0 0 C399.3 0 798.6 0 1210 0 C1210 88.44 1210 176.88 1210 268 C810.7 268 411.4 268 0 268 C0 179.56 0 91.12 0 0 Z " fill="#FEFEFE" transform="translate(0,0)"/>
<path d="M0 0 C67.32 0 134.64 0 204 0 C204 67.32 204 134.64 204 204 C136.68 204 69.36 204 0 204 C0 136.68 0 69.36 0 0 Z " fill="#F0F7FB" transform="translate(24,32)"/>
<path d="M0 0 C78.9300772 0 78.9300772 0 94.5625 14.0625 C100.83864864 20.65942957 103.29227692 27.56671036 103.4375 36.625 C103.03569778 47.06128404 101.61300203 55.43009204 93.96484375 63.01953125 C88.85614849 67.57192575 88.85614849 67.57192575 86 69 C86.88042969 69.556875 87.76085937 70.11375 88.66796875 70.6875 C97.10829893 76.16868989 102.90052772 80.61789718 105.3125 90.8125 C107.29286616 103.14735208 106.5568169 116.06344253 99.23046875 126.52734375 C89.89900016 137.53597878 80.10190428 140.64968262 66 143 C44.22 143 22.44 143 0 143 C0 95.81 0 48.62 0 0 Z " fill="#020202" transform="translate(894,55)"/>
<path d="M0 0 C70.68199234 0 70.68199234 0 90.20703125 18.0390625 C104.72544347 32.82954036 109.39785291 52.60007296 109.22949219 72.76928711 C108.8338712 92.2574995 104.99749338 108.87455858 91.5625 123.6875 C90.716875 124.450625 89.87125 125.21375 89 126 C88.45085937 126.54140625 87.90171875 127.0828125 87.3359375 127.640625 C64.18881896 149.54942032 28.73845738 143 0 143 C0 95.81 0 48.62 0 0 Z " fill="#010101" transform="translate(487,55)"/>
<path d="M0 0 C9.24 0 18.48 0 28 0 C33.63492063 13.52380952 33.63492063 13.52380952 36.05078125 19.8359375 C36.31069855 20.51433182 36.57061584 21.19272614 36.83840942 21.89167786 C37.66516364 24.05200566 38.4890128 26.21342498 39.3125 28.375 C39.59690948 29.11956451 39.88131897 29.86412903 40.17434692 30.6312561 C44.00716591 40.6669691 47.75839137 50.7273609 51.3894043 60.83813477 C53.20366065 65.87265969 55.10463095 70.85723754 57.125 75.8125 C59.46548621 81.56934109 61.57218955 87.37325218 63.60986328 93.24121094 C65.63961573 99.05433821 67.79850765 104.81239554 70 110.5625 C70.33765381 111.44574951 70.67530762 112.32899902 71.02319336 113.23901367 C72.31946412 116.62557966 73.61779379 120.01130614 74.92529297 123.39355469 C75.76740873 125.57309365 76.60295224 127.75505457 77.4375 129.9375 C78.14712891 131.77634766 78.14712891 131.77634766 78.87109375 133.65234375 C80 137 80 137 81 143 C70.44 143 59.88 143 49 143 C48.071875 140.256875 47.14375 137.51375 46.1875 134.6875 C45.90156982 133.84791748 45.61563965 133.00833496 45.32104492 132.14331055 C43.30095207 126.12576341 41.67829385 120.15374412 40 114 C14.755 114.495 14.755 114.495 -11 115 C-13.97 124.24 -16.94 133.48 -20 143 C-30.56 143 -41.12 143 -52 143 C-50.67754415 137.0489487 -49.66919029 132.74519962 -47.375 127.375 C-44.7038587 120.95658613 -42.37521864 114.4518875 -40.125 107.875 C-36.91837963 98.52920244 -33.49414603 89.2892705 -29.94140625 80.0703125 C-28.03133329 75.10811996 -26.19715185 70.12001794 -24.375 65.125 C-22.36636317 59.62342344 -20.28235586 54.1709957 -18.0625 48.75 C-15.12176766 41.49984341 -12.5857264 34.13094699 -10.04907227 26.73120117 C-6.94256254 17.71686246 -3.51575929 8.86264322 0 0 Z " fill="#020202" transform="translate(800,55)"/>
<path d="M0 0 C9.57 0 19.14 0 29 0 C29 19.14 29 38.28 29 58 C47.81 58 66.62 58 86 58 C86 38.86 86 19.72 86 0 C95.9 0 105.8 0 116 0 C116 47.19 116 94.38 116 143 C106.1 143 96.2 143 86 143 C86 122.87 86 102.74 86 82 C67.19 82 48.38 82 29 82 C29 102.13 29 122.26 29 143 C19.43 143 9.86 143 0 143 C0 95.81 0 48.62 0 0 Z " fill="#000000" transform="translate(617,55)"/>
<path d="M0 0 C31.68 0 63.36 0 96 0 C96 8.25 96 16.5 96 25 C74.22 25 52.44 25 30 25 C30 35.89 30 46.78 30 58 C48.48 58 66.96 58 86 58 C86 65.59 86 73.18 86 81 C67.52 81 49.04 81 30 81 C30 93.54 30 106.08 30 119 C51.78 119 73.56 119 96 119 C96 126.92 96 134.84 96 143 C64.32 143 32.64 143 0 143 C0 95.81 0 48.62 0 0 Z " fill="#010101" transform="translate(374,55)"/>
<path d="M0 0 C31.02 0 62.04 0 94 0 C94 8.25 94 16.5 94 25 C72.88 25 51.76 25 30 25 C30 36.88 30 48.76 30 61 C48.48 61 66.96 61 86 61 C86 68.92 86 76.84 86 85 C67.52 85 49.04 85 30 85 C30 104.14 30 123.28 30 143 C20.1 143 10.2 143 0 143 C0 95.81 0 48.62 0 0 Z " fill="#030303" transform="translate(264,55)"/>
<path d="M0 0 C38.61 0 77.22 0 117 0 C117 8.25 117 16.5 117 25 C102.48 25 87.96 25 73 25 C73 63.94 73 102.88 73 143 C63.1 143 53.2 143 43 143 C43 104.06 43 65.12 43 25 C28.81 25 14.62 25 0 25 C0 16.75 0 8.5 0 0 Z " fill="#030303" transform="translate(1068,55)"/>
<path d="M0 0 C18.15 0 36.3 0 55 0 C55 7.26 55 14.52 55 22 C59.95 22 64.9 22 70 22 C70 15.07 70 8.14 70 1 C87.82 1 105.64 1 124 1 C124 19.15 124 37.3 124 56 C106.18 56 88.36 56 70 56 C70 49.07 70 42.14 70 35 C65.05 35 60.1 35 55 35 C55 41.93 55 48.86 55 56 C36.85 56 18.7 56 0 56 C0 37.52 0 19.04 0 0 Z " fill="#5B51D3" transform="translate(29,105)"/>
<path d="M0 0 C10.23 0 20.46 0 31 0 C31 47.19 31 94.38 31 143 C20.77 143 10.54 143 0 143 C0 95.81 0 48.62 0 0 Z " fill="#070707" transform="translate(1023,55)"/>
<path d="M0 0 C29.87975687 0 29.87975687 0 39.28515625 9.09765625 C48.84162915 19.69902823 49.51162317 32.62852131 49.4375 46.375 C49.4674707 48.33566406 49.4674707 48.33566406 49.49804688 50.3359375 C49.49153555 63.4627764 47.19580149 76.11360473 38 86 C26.7582843 96.02978353 14.98205507 94 0 94 C0 62.98 0 31.96 0 0 Z " fill="#FCFCFC" transform="translate(516,80)"/>
<path d="M0 0 C18.15 0 36.3 0 55 0 C55 18.48 55 36.96 55 56 C36.85 56 18.7 56 0 56 C0 37.52 0 19.04 0 0 Z " fill="#5D54D3" transform="translate(29,176)"/>
<path d="M0 0 C18.15 0 36.3 0 55 0 C55 18.48 55 36.96 55 56 C36.85 56 18.7 56 0 56 C0 37.52 0 19.04 0 0 Z " fill="#5D54D3" transform="translate(29,35)"/>
<path d="M0 0 C17.82 0 35.64 0 54 0 C54 18.15 54 36.3 54 55 C36.18 55 18.36 55 0 55 C0 36.85 0 18.7 0 0 Z " fill="#594FD2" transform="translate(169,36)"/>
<path d="M0 0 C17.82 0 35.64 0 54 0 C54 18.15 54 36.3 54 55 C36.18 55 18.36 55 0 55 C0 36.85 0 18.7 0 0 Z " fill="#594FD2" transform="translate(99,36)"/>
<path d="M0 0 C4.929375 -0.0825 9.85875 -0.165 14.9375 -0.25 C16.47398193 -0.28641602 18.01046387 -0.32283203 19.59350586 -0.36035156 C27.73799932 -0.42616565 35.24281279 -0.29195962 41.60522461 5.44824219 C46.27613817 10.64486859 46.29511771 15.61017791 46.21484375 22.30859375 C45.83315941 27.09005759 44.14696111 29.85303889 40.8125 33.1875 C32.26914274 38.69321912 24.41767197 38.36888168 14.5 38.1875 C9.715 38.125625 4.93 38.06375 0 38 C0 25.46 0 12.92 0 0 Z " fill="#FBFBFB" transform="translate(924,136)"/>
<path d="M0 0 C4.434375 -0.061875 8.86875 -0.12375 13.4375 -0.1875 C14.81736084 -0.21481201 16.19722168 -0.24212402 17.61889648 -0.27026367 C33.16363155 -0.37477176 33.16363155 -0.37477176 38.61108398 4.41723633 C42.83595431 9.23176161 43.30012367 13.36399156 43.2109375 19.5 C42.78206904 24.58288551 40.76036427 27.25653271 37.1875 30.75 C32.00902367 34.40539506 27.56401832 35.2528809 21.2890625 35.1953125 C19.60611084 35.18781982 19.60611084 35.18781982 17.88916016 35.18017578 C15.77840088 35.15286377 15.77840088 35.15286377 13.625 35.125 C9.12875 35.08375 4.6325 35.0425 0 35 C0 23.45 0 11.9 0 0 Z " fill="#FBFBFB" transform="translate(924,80)"/>
<path d="M0 0 C0.66 0 1.32 0 2 0 C3.6364279 4.76457605 5.27213727 9.529398 6.90722656 14.29443359 C7.46172425 15.91005865 8.01640665 17.52562032 8.57128906 19.14111328 C10.14866583 23.73372831 11.7218712 28.32773283 13.28979492 32.92358398 C13.95030627 34.85471119 14.61652385 36.78388408 15.28320312 38.71289062 C15.64865234 39.78216797 16.01410156 40.85144531 16.390625 41.953125 C16.70547852 42.86739258 17.02033203 43.78166016 17.34472656 44.72363281 C18 47 18 47 18 50 C7.11 50 -3.78 50 -15 50 C-13.69233534 43.4616767 -12.35816236 37.51432933 -10.21484375 31.2890625 C-9.95369278 30.51364105 -9.69254181 29.7382196 -9.42347717 28.93930054 C-8.60056837 26.49920923 -7.76943697 24.06202619 -6.9375 21.625 C-6.1036276 19.1660281 -5.27150102 16.70647823 -4.44081116 14.24642944 C-3.926606 12.72535818 -3.41029681 11.20499609 -2.8915863 9.68545532 C-1.80201123 6.47727118 -0.79063559 3.29398932 0 0 Z " fill="#FAFAFA" transform="translate(813,94)"/>
<path d="M0 0 C12.21 0 24.42 0 37 0 C35.0409038 3.91819241 33.32471613 5.89540711 30.23828125 8.921875 C29.76939987 9.38555481 29.30051849 9.84923462 28.81742859 10.32696533 C27.32048402 11.80617025 25.81704251 13.27852701 24.3125 14.75 C17.96942027 20.97394627 11.76084387 27.2252145 6 34 C3.6875 36.5 3.6875 36.5 2 38 C1.34 38 0.68 38 0 38 C0 25.46 0 12.92 0 0 Z " fill="#EAF0F9" transform="translate(177,44)"/>
<path d="M0 0 C12.21 0 24.42 0 37 0 C35.00183689 3.99632621 32.71846124 6.52373591 29.58203125 9.578125 C28.77882698 10.37352692 28.77882698 10.37352692 27.95939636 11.18499756 C26.24846248 12.87817056 24.53101232 14.56452208 22.8125 16.25 C20.5655833 18.4600925 18.32225607 20.67375011 16.08203125 22.890625 C15.54409943 23.42151733 15.0061676 23.95240967 14.45193481 24.49938965 C10.88940506 28.04058275 7.53965027 31.69548384 4.3737793 35.60058594 C3 37 3 37 0 38 C0 25.46 0 12.92 0 0 Z " fill="#E9EFF9" transform="translate(107,44)"/>
<path d="M0 0 C12.21 0 24.42 0 37 0 C37 3 37 3 35.75756836 4.31665039 C35.14534424 4.80125732 34.53312012 5.28586426 33.90234375 5.78515625 C29.75529124 9.25946672 25.93599389 12.97205138 22.12890625 16.80859375 C21.51711517 17.42376862 20.9053241 18.03894348 20.2749939 18.67276001 C18.36878163 20.59232253 16.4652421 22.51449801 14.5625 24.4375 C12.02497078 27.00153083 9.48419833 29.56228341 6.94140625 32.12109375 C6.35919815 32.71160019 5.77699005 33.30210663 5.17713928 33.9105072 C3.80353934 35.2925931 2.404408 36.64923119 1 38 C0.67 38 0.34 38 0 38 C0 25.46 0 12.92 0 0 Z " fill="#ECF2FA" transform="translate(38,44)"/>
<path d="M0 0 C12.21 0 24.42 0 37 0 C35.73507798 3.79476607 33.89375093 5.22981076 31 8 C29.89513751 9.1042095 28.79343871 10.21159049 27.69433594 11.3215332 C24.41868738 14.61489111 21.14006258 17.90526803 17.86035156 21.19458008 C16.44540645 22.61459961 15.0313534 24.03550852 13.61816406 25.45727539 C11.57588644 27.51160255 9.53046648 29.56275355 7.484375 31.61328125 C6.53132477 32.57407341 6.53132477 32.57407341 5.559021 33.55427551 C4.05820829 35.05528219 2.53177104 36.53059967 1 38 C0.67 38 0.34 38 0 38 C0 25.46 0 12.92 0 0 Z " fill="#EFF5FB" transform="translate(38,114)"/>
<path d="M0 0 C11.88 0 23.76 0 36 0 C36 3 36 3 34.49609375 4.54296875 C33.81675781 5.08566406 33.13742188 5.62835938 32.4375 6.1875 C29.61259052 8.45073157 27.22024844 10.8425064 24.87109375 13.58203125 C20.37387338 18.80552582 15.50726821 23.63892832 10.625 28.5 C9.71105469 29.4178125 8.79710937 30.335625 7.85546875 31.28125 C6.98792969 32.1475 6.12039062 33.01375 5.2265625 33.90625 C4.04441162 35.08670898 4.04441162 35.08670898 2.83837891 36.29101562 C1 38 1 38 0 38 C0 25.46 0 12.92 0 0 Z " fill="#ECF3FA" transform="translate(38,184)"/>
<path d="M0 0 C11.88 0 23.76 0 36 0 C34.39273353 3.21453294 33.62096151 4.62221455 31.20703125 6.953125 C30.66296631 7.48558838 30.11890137 8.01805176 29.55834961 8.56665039 C28.69415405 9.39990845 28.69415405 9.39990845 27.8125 10.25 C22.45590768 15.49597254 22.45590768 15.49597254 17.4375 21.0625 C14.34169036 24.69773102 11.04237059 28.10552639 7.6875 31.5 C6.89460571 32.31223022 6.89460571 32.31223022 6.08569336 33.14086914 C4.76272833 34.46725324 3.38523318 35.73878618 2 37 C1.34 37 0.68 37 0 37 C0 24.79 0 12.58 0 0 Z " fill="#EFF6FB" transform="translate(108,114)"/>
</svg>
